<?xml version="1.0" encoding="utf-8"?>
<!-- Generator: Adobe Illustrator 19.2.1, SVG Export Plug-In . SVG Version: 6.00 Build 0)  -->
<svg version="1.1" id="layer" xmlns="http://www.w3.org/2000/svg" xmlns:xlink="http://www.w3.org/1999/xlink" x="0px" y="0px"
	 viewBox="0 0 652 652" style="enable-background:new 0 0 652 652;" xml:space="preserve">
<style type="text/css">
	.st0{fill:#FFF200;}
	.st1{fill:#444745;}
</style>
<rect x="21" y="170.5" class="st0" width="600" height="300"/>
<path class="st1" d="M299,199.3h7.4l0.9-3.3H216l-0.9,3.3h13.3c11.5,0,20.7,8,20.7,23.9c0,8.9-3.8,20.4-10,34.3l-58.8,130.7
	l-14.5-169.7c-1.2-13.3,5.3-19.2,20.4-19.2h8.6l0.9-3.3H67l-1.2,3.3H74c10.1,0,13.9,6.2,15.1,18.3L111.9,437H166l90.5-191.6
	C270.1,216.7,284.5,199.3,299,199.3L299,199.3z M288.4,438.2c-8.3,0-13.3-2.7-13.3-16.3c0-17.1,6.2-50.6,13-81
	c0.9,14.2,10.6,28.1,25.1,28.1c3.6,0,6.5-0.3,9.4-0.9C309.3,426,304,438.2,288.4,438.2L288.4,438.2z M545.9,322.9
	c17.1,0,28.1-14.2,28.1-30.2c0-13.6-9.8-23.7-23.6-23.7c-25.1,0-36.9,19.8-57.6,56.4c-4.4-22.8-14.8-52.6-41.4-52.6
	c-29.9,0-64.1,42.6-95.8,68.9c-14.2,11.8-30.1,19.5-42.9,19.5c-13,0-20.7-13.3-20.7-36.7c9.2-38.1,14.2-48.2,28.4-48.2
	c9.8,0,13.9,5.6,13.9,17.1c0,12.1-2.7,32.8-8,58.5c14.2-4.4,35.5-22.2,53.2-41.4c-9.4-22.5-29.6-37.9-58.8-37.9
	c-54.1,0-101.4,48.5-101.4,102.9c0,37.6,26.6,65.9,68.3,65.9c68.9,0,97.6-59.7,97.6-101.1c0-5.9-0.3-10.3-0.9-15.7
	c10.7-11.5,24.2-22.5,35.5-22.5c12.7,0,22.8,31.9,32.8,80.1c-8.9,9.7-17.7,28.7-22.2,31.9c-1.8-17.1-13-27.8-28.1-27.8
	c-16.9,0-28.7,16-28.7,29.6c0,15.4,10.6,25.4,24.5,25.4c29.3,0,37.6-27.8,55.9-52.3c5.6,26.3,18.6,52.3,41.1,52.3
	c26.6,0,51.4-22.8,64.1-39l-2.4-3.9c-8.3,8-16.3,13.3-25.4,13.3c-16.6,0-28.4-35.8-37.5-78.9c5.3-7.4,13.9-26,19.8-32.5
	C517.9,308.3,526.4,322.8,545.9,322.9L545.9,322.9z"/>
</svg>
